# xmcd CD database file
#
# Track frame offsets:
#	150
#	14206
#	36167
#	53735
#	72370
#	90286
#	112586
#	129953
#	145736
#	159557
#
# Disc length: 2503 seconds
#
# Revision: 0
# Processed by: cddbd v1.5.2PL0 Copyright (c) Steve Scherf et al.
# Submitted via: CDex 1.70beta2
#
DISCID=7a09c50a
DTITLE=Cody Jinks - 30
DYEAR=2012
DGENRE=Country
TTITLE0=A Memory And A Dream
TTITLE1=Looking For A Friend
TTITLE2=We Get By
TTITLE3=Thunderheads
TTITLE4=13 Years
TTITLE5=Prairie House Redemption (with Sam Anderson)
TTITLE6=Glad To Say
TTITLE7=Lady Bug
TTITLE8=This Old Guitar
TTITLE9=Alone
EXTD=YEAR: 2012
EXTT0=
EXTT1=
EXTT2=
EXTT3=
EXTT4=
EXTT5=
EXTT6=
EXTT7=
EXTT8=
EXTT9=
PLAYORDER=
